<?xml version="1.0" standalone="no"?>
<!DOCTYPE svg PUBLIC "-//W3C//DTD SVG 20010904//EN"
 "http://www.w3.org/TR/2001/REC-SVG-20010904/DTD/svg10.dtd">
<svg version="1.0" xmlns="http://www.w3.org/2000/svg"
 width="700.000000pt" height="700.000000pt" viewBox="0 0 700.000000 700.000000"
 preserveAspectRatio="xMidYMid meet">
<metadata>
Created by potrace 1.14, written by Peter Selinger 2001-2017
</metadata>
<g transform="translate(0.000000,700.000000) scale(0.100000,-0.100000)"
fill="#000000" stroke="none">
<path d="M3278 6996 c-1 -2 -39 -6 -83 -10 -111 -8 -255 -29 -365 -51 -14 -3
-38 -8 -55 -11 -63 -11 -235 -57 -340 -91 -989 -317 -1793 -1064 -2179 -2023
-100 -248 -177 -520 -210 -745 -2 -16 -8 -50 -12 -75 -36 -226 -40 -683 -9
-907 10 -67 14 -99 20 -148 4 -27 10 -66 15 -85 5 -19 12 -48 14 -65 28 -156
114 -435 189 -615 219 -526 539 -963 993 -1355 228 -197 603 -424 907 -549
173 -71 471 -164 609 -190 13 -2 50 -9 83 -15 33 -6 70 -13 82 -15 11 -3 43
-7 70 -11 26 -4 59 -9 73 -11 196 -30 703 -24 920 12 165 27 224 38 275 51 33
8 68 16 77 18 43 9 183 51 285 86 740 255 1370 748 1800 1408 282 432 484 989
538 1486 4 33 9 71 11 85 9 46 11 524 4 605 -15 153 -21 210 -25 225 -2 8 -7
35 -10 60 -38 290 -181 725 -336 1026 -73 143 -241 421 -268 444 -4 3 -33 41
-66 85 -32 44 -69 91 -81 105 -12 14 -41 48 -64 75 -284 336 -701 655 -1125
859 -289 140 -683 264 -955 301 -19 3 -46 7 -60 10 -13 2 -52 7 -86 11 -33 3
-74 8 -90 10 -32 5 -540 14 -546 10z m507 -230 c17 -2 55 -6 85 -10 30 -4 73
-9 95 -12 32 -4 140 -23 226 -39 63 -12 246 -64 358 -101 405 -136 782 -353
1111 -639 62 -54 247 -239 295 -295 26 -30 58 -67 71 -82 13 -15 61 -78 107
-140 342 -463 560 -1014 623 -1577 21 -187 26 -504 10 -646 -16 -148 -28 -233
-36 -275 -5 -25 -12 -61 -14 -81 -9 -62 -75 -310 -112 -419 -113 -330 -270
-628 -477 -903 -48 -65 -98 -130 -110 -144 -347 -408 -762 -716 -1242 -921
-171 -73 -430 -155 -590 -188 -48 -10 -194 -34 -240 -39 -27 -4 -61 -8 -75
-11 -146 -24 -557 -24 -750 1 -493 62 -939 218 -1350 473 -105 65 -126 80
-230 156 -247 181 -519 459 -702 716 -281 394 -478 858 -562 1325 -3 17 -8 41
-11 54 -2 14 -7 47 -11 75 -3 28 -7 62 -9 76 -36 241 -23 671 29 955 9 44 17
91 20 105 20 113 92 354 158 522 81 210 247 519 361 676 150 205 229 297 393
459 423 418 949 710 1525 847 172 41 366 72 512 82 51 4 93 7 95 9 4 3 412 -4
447 -9z"/>
<path d="M3817 6309 c-152 -22 -309 -70 -442 -137 -331 -165 -604 -491 -696
-831 -66 -241 -59 -522 16 -729 13 -37 22 -68 20 -70 -2 -2 -32 5 -67 16 -97
32 -143 43 -248 62 -579 100 -1198 -135 -1535 -584 -112 -149 -219 -367 -251
-511 -35 -155 -46 -246 -46 -375 1 -98 2 -123 17 -225 32 -221 132 -459 267
-635 130 -171 296 -308 483 -399 135 -66 214 -94 330 -116 470 -91 920 40
1238 360 l94 94 12 -67 c16 -88 81 -283 121 -363 115 -229 242 -388 444 -557
137 -115 439 -259 599 -287 17 -4 50 -10 72 -15 104 -23 284 -30 415 -17 428
43 828 272 1071 615 33 45 59 85 59 87 0 3 10 22 23 43 67 106 140 332 155
477 9 87 9 252 0 325 -46 388 -271 749 -595 956 -149 95 -377 179 -498 184
l-30 1 30 25 c335 287 527 630 578 1033 83 651 -280 1270 -903 1536 -69 30
-192 69 -253 81 -12 2 -47 9 -77 15 -70 14 -327 19 -403 8z"/>
</g>
</svg>
