<svg xmlns="http://www.w3.org/2000/svg" viewBox="0 0 210.41 210.15"><defs><style>.cls-1{fill:#6ba8a9;}</style></defs><title>logo-restAsset 3</title><g id="Layer_2" data-name="Layer 2"><g id="svg8"><path class="cls-1" d="M203,129.29a49.87,49.87,0,0,0-31.09-23.19,45.83,45.83,0,0,0-5.55-1,63.62,63.62,0,0,0,15.2-16.94,58.31,58.31,0,0,0,7.21-44.67c-7.42-30-38.77-49.22-68.47-41.94A53.49,53.49,0,0,0,87.36,26a48.61,48.61,0,0,0-5.56,37.4,45,45,0,0,0,2.06,6.09c-26.09-10.09-57.29-2-73.53,20.91a57.14,57.14,0,0,0-9.42,43,54.08,54.08,0,0,0,22.9,35.44,53.27,53.27,0,0,0,29.91,9.08c15.55,0,30.81-6.62,40.61-19a62.5,62.5,0,0,0,7.6,21.24,59.72,59.72,0,0,0,36.86,28.2,57.46,57.46,0,0,0,14.46,1.84c25.41,0,49.12-16.68,55.53-41.25A52.21,52.21,0,0,0,203,129.29Zm-55.5-19.5a.1.1,0,0,1,0-.2A.1.1,0,0,1,147.52,109.79Zm52.55,56.84c-6.39,24.5-33.42,39.6-59,33a50.83,50.83,0,0,1-31.34-24,53.19,53.19,0,0,1-6.55-34.9c.2-1.24.44-2.46.73-3.68s.35-2.48.45-3.73a47.6,47.6,0,0,0-.74-12.76A44.34,44.34,0,0,0,84.36,91.7C65,79,38.23,84,26,102.64a37.5,37.5,0,0,0-5.25,28.56,34.54,34.54,0,0,0,15.61,22.2,33.8,33.8,0,0,0,25.47,4,30.07,30.07,0,0,0,18.89-13.53,27.6,27.6,0,0,0,3.07-21.42,24.74,24.74,0,0,0-12-15.51,23.83,23.83,0,0,0-18.23-1.82,19.9,19.9,0,0,0-12.08,10.1,18,18,0,0,0-.66,14.45,14.89,14.89,0,0,0,8.73,8.63A13.56,13.56,0,0,0,61,137.24a9.72,9.72,0,0,0,4.64-7.37c.3-2.93-1.58-7-4.85-8.3a6,6,0,0,0-7.06,2,4.5,4.5,0,0,0,.7,6.33l.26.19a4.72,4.72,0,0,1-2.07-.2,5.81,5.81,0,0,1-3.47-3.5,8.94,8.94,0,0,1,.34-7.11,10.93,10.93,0,0,1,6.72-5.53,14.6,14.6,0,0,1,11.21,1.12,15.86,15.86,0,0,1,7.68,9.95A18.58,18.58,0,0,1,73,139.23a21,21,0,0,1-13.3,9.45,24.65,24.65,0,0,1-18.64-2.94A25.59,25.59,0,0,1,29.5,129.26a28.46,28.46,0,0,1,4-21.67c9.6-14.56,30.64-18.39,46-8.36a35.39,35.39,0,0,1,15.34,23,38.28,38.28,0,0,1,.28,13.07,0,0,0,0,0,0,0,35.61,35.61,0,0,1-.72,3.56h0a37.51,37.51,0,0,1-5.49,12.24c-12.92,18.76-40.39,23.41-60,10.14a45.13,45.13,0,0,1-19.09-29.6c-.23-1.29-3.52-20.38,7.91-36.15C36,70.36,79.1,71.16,93.91,84.49a51.88,51.88,0,0,0,9.26,7.38,47.7,47.7,0,0,0,24.9,6.92,44.86,44.86,0,0,0,10.63-1.47A43.39,43.39,0,0,0,165.19,77a39,39,0,0,0,3.91-30.14A38,38,0,0,0,151,24.18a35.46,35.46,0,0,0-27.25-3.24,33.24,33.24,0,0,0-20,16.24,29.28,29.28,0,0,0-2.19,22.89,28.12,28.12,0,0,0,14.16,16.39,25.38,25.38,0,0,0,19.76,1.41A23.4,23.4,0,0,0,149,65.55a19.55,19.55,0,0,0,.32-15.66,18.35,18.35,0,0,0-10.51-10,15.1,15.1,0,0,0-12.27.74,13.31,13.31,0,0,0-6.82,9.22,9.69,9.69,0,0,0,2.51,8.4c2,2.18,6.36,3.43,9.52,1.82a6,6,0,0,0,3.1-6.61,4.51,4.51,0,0,0-5.25-3.6l-.37.08a4.51,4.51,0,0,1,1.49-1.34,6.17,6.17,0,0,1,5-.25,9.3,9.3,0,0,1,5.26,5,10.55,10.55,0,0,1-.22,8.51,14.29,14.29,0,0,1-8.25,7.5,16.41,16.41,0,0,1-12.79-1,19,19,0,0,1-9.61-11.09,20.34,20.34,0,0,1,1.57-15.91,24.23,24.23,0,0,1,14.58-11.82,26.49,26.49,0,0,1,20.37,2.47,29,29,0,0,1,13.83,17.26,30.07,30.07,0,0,1-3.06,23.23,34.3,34.3,0,0,1-21,16.07,36.6,36.6,0,0,1-28.55-4.42,38.92,38.92,0,0,1-17.35-23.1A39.72,39.72,0,0,1,95.1,30.56a44.42,44.42,0,0,1,27.37-20.28c25-6.12,51.33,10.07,57.58,35.35,4.67,18.89-4.52,35.15-6.15,37.82a52,52,0,0,1-21.27,19.35c-3.73,1.67-9.16,4.26-15.7,7.94L135,111.83c-16.33,9.92-20.45,27.46-20.45,27.46a42.37,42.37,0,0,0,5.23,32.18,40,40,0,0,0,25.32,18.18,38.91,38.91,0,0,0,29.26-5.17,34.58,34.58,0,0,0,15.45-21.86,32.62,32.62,0,0,0-4.74-24.77,30.07,30.07,0,0,0-19.59-13.11,28.61,28.61,0,0,0-21.61,4.69,24.66,24.66,0,0,0-10.39,16.3,22.77,22.77,0,0,0,4.39,17.39A20.1,20.1,0,0,0,151.83,171a18.5,18.5,0,0,0,14.06-4.49,14.74,14.74,0,0,0,5.05-10.94,13.32,13.32,0,0,0-4.88-10.23,9.86,9.86,0,0,0-8.68-1.88c-2.9.74-6.08,3.89-6.19,7.43a6,6,0,0,0,4.37,5.89,4.5,4.5,0,0,0,5.66-2.91,3.6,3.6,0,0,0,.12-.44,4.36,4.36,0,0,1,.6,2.08,5.69,5.69,0,0,1-2.05,4.29,9.5,9.5,0,0,1-7.13,2.24,11.05,11.05,0,0,1-7.72-4.43,14,14,0,0,1-2.66-10.49,15.78,15.78,0,0,1,6.68-10.37,19.85,19.85,0,0,1,14.78-3.2,21.11,21.11,0,0,1,13.75,9.24A23.55,23.55,0,0,1,181,160.72a25.58,25.58,0,0,1-11.5,16.17,29.83,29.83,0,0,1-22.44,4,31,31,0,0,1-19.64-14.14,33.33,33.33,0,0,1-4.13-25.31,35.44,35.44,0,0,1,16.37-21.89,40,40,0,0,1,30.1-4.69,41,41,0,0,1,25.5,19.06A43.1,43.1,0,0,1,200.07,166.63Z"/></g></g></svg>